<?xml version="1.0" encoding="utf-8"?>
<!-- Generator: Adobe Illustrator 22.0.0, SVG Export Plug-In . SVG Version: 6.00 Build 0)  -->
<svg version="1.1" id="Layer_1" xmlns="http://www.w3.org/2000/svg" xmlns:xlink="http://www.w3.org/1999/xlink" x="0px" y="0px"
	 viewBox="0 0 327.9 104.6" style="enable-background:new 0 0 327.9 104.6;" xml:space="preserve">
<style type="text/css">
	.st0{fill:#0F0F0F;}
</style>
<title>logo-black</title>
<g>
	<g>
		<path class="st0" d="M154.8,28.2l13.4,37l13.4-37H193l-19.5,49h-11.4l-19.3-49C142.8,28.2,154.8,28.2,154.8,28.2z"/>
		<path class="st0" d="M209.5,28.2v49h-11.1v-49C198.4,28.2,209.5,28.2,209.5,28.2z"/>
		<path class="st0" d="M257.6,28.2v9.2h-26.3V48H255v9.2h-23.6V68h27v9.2h-38.1v-49C220.3,28.2,257.6,28.2,257.6,28.2z"/>
		<path class="st0" d="M277.2,28.2L301,59.7V28.2h10.5v49h-10.1l-23.7-31.4v31.4h-10.6v-49C267.1,28.2,277.2,28.2,277.2,28.2z"/>
	</g>
</g>
</svg>
