<?xml version="1.0" encoding="utf-8"?>
<!-- Generator: Adobe Illustrator 22.0.0, SVG Export Plug-In . SVG Version: 6.00 Build 0)  -->
<svg version="1.1" id="Layer_1" xmlns="http://www.w3.org/2000/svg" xmlns:xlink="http://www.w3.org/1999/xlink" x="0px" y="0px"
	 viewBox="0 0 327.9 104.6" style="enable-background:new 0 0 327.9 104.6;" xml:space="preserve">
<style type="text/css">
	.st0{fill:url(#SVGID_1_);}
	.st1{fill:url(#SVGID_2_);}
	.st2{fill:#221F1F;}
</style>
<title>logo-black</title>
<linearGradient id="SVGID_1_" gradientUnits="userSpaceOnUse" x1="31.634" y1="67.5569" x2="75.994" y2="9.5469" gradientTransform="matrix(1 0 0 -1 0 77.83)">
	<stop  offset="2.000000e-02" style="stop-color:#0E3759"/>
	<stop  offset="0.38" style="stop-color:#055990"/>
	<stop  offset="0.7" style="stop-color:#0E3759"/>
	<stop  offset="0.86" style="stop-color:#0E3759"/>
</linearGradient>
<path class="st0" d="M53.7,31.5c-4.1,1-7.7,3.5-10.2,7c-0.7,1-1.3,2-1.9,3.2c-0.2,0.4-0.3,0.7-0.5,1.1c0.5,1,0.9,2,1.3,3
	c1.1,2.4,2.2,4.8,3.5,7.1l0,0c0.4,0.8,0.9,1.5,1.4,2.3c0.7,1.4,1.8,2.5,3.2,3.3c1,0.5,2.3,0.5,3.3-0.1c1.3-0.9,2.3-2.1,2.8-3.5
	c1-1.9,1.9-3.8,2.9-5.7c0.6-1.2,1.2-2.4,1.8-3.5l0,0c0.6-1.2,1.2-2.3,1.8-3.4l0,0c1.5-3,3.1-6.1,4.7-9.1
	C63.4,31.3,58.4,30.4,53.7,31.5z"/>
<linearGradient id="SVGID_2_" gradientUnits="userSpaceOnUse" x1="10.1219" y1="51.0982" x2="54.4719" y2="-6.9018" gradientTransform="matrix(1 0 0 -1 0 77.83)">
	<stop  offset="2.000000e-02" style="stop-color:#0E3759"/>
	<stop  offset="0.38" style="stop-color:#055990"/>
	<stop  offset="0.7" style="stop-color:#0E3759"/>
	<stop  offset="0.86" style="stop-color:#0E3759"/>
</linearGradient>
<path class="st1" d="M46.7,62.3c-1.4-1.1-2.6-2.5-3.3-4.2v0c-0.5-1.2-1.1-2.4-1.7-3.5c-0.9-1.9-1.9-3.8-2.8-5.7
	c-0.8-1.7-1.7-3.4-2.5-5.1c-0.9-2.1-2-4.1-3.4-5.9c-2.9-3.5-7-5.9-11.6-6.6C17.1,30.6,12.8,31.2,9,33c1.4,3.1,3,6.1,4.4,9.2
	c1,2,1.9,4,2.9,5.9c0.9,1.8,1.8,3.6,2.7,5.4l0,0c0.9,1.8,1.8,3.6,2.6,5.4c0.6,1.2,1.2,2.5,1.9,3.7c1.1,2.1,2.5,4,4,5.8
	c1,1.2,2.2,2.3,3.5,3.2c1.7,1.2,3.7,1.9,5.8,2c2,0.1,4-0.4,5.8-1.4c2-1.1,3.9-2.5,5.4-4.2c1.6-1.7,3-3.5,4.1-5.5
	c-0.7,0.3-1.4,0.5-2.1,0.6C48.9,63.4,47.7,63,46.7,62.3z"/>
<path class="st2" d="M83.3,34.1h7l8.9,25.9l9-25.9h7l-12.9,36.5h-6.5L83.3,34.1z"/>
<path class="st2" d="M118.8,34.1h19.4v6.8h-12.7v6.6h12.7v6.7h-12.7v9.6h12.7v6.8h-19.4L118.8,34.1z"/>
<path class="st2" d="M142.7,34.1h6.5l15.2,24v-24h6.8v36.5h-6.5l-15.2-23.9v23.9h-6.8V34.1z"/>
<path class="st2" d="M175.6,34.1h6.8V64h9.9v6.6h-16.6V34.1z"/>
<path class="st2" d="M210.6,33.2c4.9-0.1,9.7,2,13,5.6c3.6,3.6,5.5,8.6,5.4,13.7c0.1,5.1-1.9,9.9-5.4,13.5c-7,7.2-18.5,7.4-25.7,0.4
	c-0.2-0.2-0.4-0.4-0.6-0.6c-3.5-3.6-5.4-8.5-5.3-13.5c0-3.4,0.8-6.7,2.5-9.6c1.6-2.9,3.9-5.3,6.8-7C204,34,207.3,33.2,210.6,33.2z
	 M210.5,40c-3.1-0.1-6.2,1.2-8.3,3.5c-2.3,2.4-3.5,5.7-3.4,9c-0.2,3.7,1.4,7.2,4.2,9.6c2.1,1.8,4.8,2.7,7.5,2.7
	c3.1,0,6.1-1.3,8.2-3.6c2.3-2.4,3.5-5.5,3.4-8.8c0.1-3.3-1.2-6.4-3.4-8.8C216.6,41.3,213.6,40,210.5,40L210.5,40z"/>
<path class="st2" d="M249.3,33.2c4.9-0.1,9.7,2,13,5.6c3.6,3.6,5.5,8.6,5.4,13.7c0.1,5-1.8,9.9-5.4,13.5c-7,7.2-18.5,7.4-25.7,0.4
	c-0.2-0.2-0.4-0.4-0.6-0.6c-5.8-6.3-7-15.6-2.8-23.1c1.6-2.9,3.9-5.3,6.8-7C242.8,34,246,33.2,249.3,33.2z M249.2,40
	c-3.1-0.1-6.2,1.2-8.3,3.5c-2.3,2.4-3.5,5.7-3.4,9c-0.2,3.7,1.4,7.2,4.2,9.6c2.1,1.8,4.8,2.8,7.5,2.7c3.1,0,6.1-1.3,8.2-3.6
	c2.3-2.4,3.5-5.5,3.4-8.8c0.1-3.3-1.1-6.5-3.4-8.8C255.4,41.3,252.4,40,249.2,40z"/>
<path class="st2" d="M273.9,34.1h6.6l8.2,25.5l8.3-25.5h6.6l6,36.5H303l-3.8-23l-7.5,23h-6l-7.5-23l-3.9,23h-6.6L273.9,34.1z"/>
</svg>
